<svg id="Layer_1" version="1.1" viewBox="0 0 100 100" xml:space="preserve" xmlns="http://www.w3.org/2000/svg"><style>.st1{fill:none}</style><path d="M92.7 19.4c-2.7-2.1-1.8-5.7-4.2-8.4-1.1-1.2-2.3-2.1-3.8-2.7-1.7-.8-4.1-.4-5.8-1.3-2.6-1.3-3-4.5-6.7-4.5-3.2 0-4.8 2.3-5.2 5.2-.2 1.9-.4 3.8-.4 5.7-.2.6-.4 1.3-.4 2-.1 1.6-.2 3.3-.2 5-4.2-.7-8.5-.5-12.6.6-10-.6-20.3 4.9-27.9 10.9-4.7 3.8-8.7 8.4-11.8 13.6 0 .1-.1.1-.1.2-2.6 1.3-5.1 3-7.3 4.9-1 .9-1.3 2.3-1 3.6.2 2.1 2 3.7 4.2 3.6.2 0 .4 0 .6-.1.3-.1.6-.1.9-.2l.3.9v.9C13 77.4 26.4 90.9 44.5 92.4c.2.5.3 1 .5 1.4.7 1.8 2.6 3.3 4.7 2.6.7-.2 1.3-.6 1.8-1.1.8-.3 1.5-.9 2-1.6l2.9-4.9c6.2-2.3 11.3-7.6 15-13.2.8-1.3 1.6-2.6 2.2-3.9 4.1-5.8 6.6-12.5 7-19.6.7-5.7.7-11.5.2-17.2 5.4-2.9 14.8-.6 15.8-8.5.4-3.2-1.5-5.2-3.9-7z" fill="#fdb913" id="fill"/><g id="line_copy"><path class="st1" d="M75.7 37.5c-1.6-1.4-3.2-2.9-4.9-4.6-1.5-1.6-2.9-3.1-4.2-4.6-.8 1.1-1.7 2.2-2.7 3.2-1.4 1.5-3.1 2.8-5 3.7-1.3.6-2.7.9-4.1.9-1.4 0-2.7-.3-3.9-1a6.1 6.1 0 01-2.7-2.8c-.6-1.2-.9-2.4-.9-3.7 0-.9.2-1.8.5-2.7.3-.6.6-1.1 1-1.5-.3 0-.6 0-.9.1-4.7.5-15.6 1.7-25.2 9.9-4.1 3.6-7.5 7.9-9.9 12.8-.4.8-1 1.6-1.8 2.1l-4.2 2.9c-.4.3-.7.7-.7 1.2 0 .3.1.5.2.8.1.2.4.4.6.6l2.7 1.4c1.3.7 2.3 2 2.6 3.5 1.4 7 4.7 13.4 9.6 18.6C27.3 84 34.3 88 42.1 89.6c.3-.1.6-.2.9-.1.9.1 1.8.2 2.7.2h.5c.8 0 1.4.6 1.5 1.4 0 .8-.6 1.4-1.4 1.5h-.1c.5.5.9 1 1.4 1.4.9.9 2.4 1 3.4.1l.1-.1 4.6-4.8c.4-.4.8-.7 1.2-.9A42.2 42.2 0 0072.8 72c3.3-6.2 4.1-12.9 4.1-19 0-3.3-.2-6.4-.4-9.2-.3-2.7-.6-4.8-.8-6.3zm-19.3 5.8c-.9.7-1.7 1.4-2.5 2.2.2.2.4.5.6.7a8.6 8.6 0 011.6 5.4c0 1.4-.3 2.7-.8 4-.3.7-1.2 1-1.9.7-.7-.3-1-1.2-.7-1.9.4-.9.5-1.9.5-2.8 0-1.3-.4-2.6-1.1-3.7a6.78 6.78 0 00-5.5-2.9H46c-1.2.1-2.3.6-3.2 1.2-.9.6-1.6 1.4-2.1 2.4-.3.5-.4 1.1-.4 1.7v.1c0 .9.3 1.7.9 2.3.7.9 1.4 1.7 2.2 2.5.8.8 1.6 1.5 2.6 2.1 1 .7 1.8 1.6 2.5 2.6 1 1.4 1.5 3.1 1.6 4.8 0 .5 0 .9-.1 1.4-.3 1.3-1 2.6-2 3.5-.6.6-1.3 1.1-2 1.6-1.7 1-3.6 1.6-5.5 1.5-.5 0-1 0-1.5-.1-1.9-.3-3.8-1.2-5.3-2.4-.6.7-1.3 1.5-1.9 2.3-.5.6-1.4.7-2 .3-.6-.5-.7-1.4-.3-2 .7-.9 1.4-1.8 2.2-2.7-.8-1.1-1.4-2.3-1.8-3.5-.3-1.1-.5-2.2-.5-3.4 0-1.6.3-3.2.9-4.7.3-.7 1.1-1.1 1.9-.8.7.3 1.1 1.1.8 1.8-.5 1.2-.7 2.4-.7 3.6a9.36 9.36 0 002.9 6.5 7.65 7.65 0 009.3 1.1c.6-.3 1.1-.7 1.5-1.2.6-.6 1-1.3 1.2-2.1.1-.3.1-.5.1-.8-.1-1.2-.5-2.3-1.2-3.3-.4-.7-1-1.3-1.7-1.8-1.1-.7-2.1-1.5-3-2.5-.9-.9-1.7-1.9-2.5-2.9-.8-1.1-1.3-2.5-1.3-3.9v-.1c0-1 .3-2 .8-2.9a9.8 9.8 0 017.6-5.1h.9c1.8 0 3.6.5 5.1 1.5.9-.9 1.9-1.8 2.9-2.6.6-.5 1.5-.4 2 .2.2.7.1 1.6-.5 2.1zM91.7 26.5c-.9-.8-1.7-1.7-2.5-2.7-.1-.2-.3-.4-.4-.6-2.2 1.5-4.5 3-6.7 4.4-.7.4-1.5.3-2-.4-.4-.7-.3-1.5.4-2 2.4-1.5 4.7-3.1 7.1-4.6.1-.1.2-.1.2-.1 0-.4-.1-.7-.1-1.1 0-.5 0-1-.1-1.6-.4-2-1.8-3.6-3.7-4.2-1-.2-1.9-.3-2.9-.3s-2-.2-3-.4a69.33 69.33 0 00-3.3 4.7c-.4.7-1.3.9-1.9.5-.7-.4-.9-1.3-.5-1.9 1-1.6 2-3.1 3.2-4.6-.1-.1-.2-.1-.2-.2-.5-.5-.9-1.1-1.2-1.7-.2-.5-.5-.9-.8-1.3-.4-.5-.9-.9-1.5-1.2-.6-.3-1.3-.4-1.9-.5-.3 0-.5 0-.8.1-.7 5.8-1.5 11.6-2.3 17.4 1.8 2.3 3.8 4.6 5.9 6.7 1.6 1.6 3.1 3 4.6 4.3 4-2.9 8.7-4.5 13.5-4.8.6 0 1.2-.1 1.7-.2a3 3 0 001-.4c.1-.1.1-.1.1-.2v-.1c0-.2-.1-.5-.2-.7-.4-.8-1-1.6-1.7-2.3zM61.3 20.9c.3.1.5.2.8.2 0-.1 0-.2-.1-.4-.5-2.8-1.5-5.5-2.8-8-.2-.4-.4-.8-.7-1.1-.2-.3-.4-.5-.7-.7-.5-.3-1.2-.4-1.8-.4h-.3c-.5 0-1 .1-1.4.2-.5.2-.8.6-1 1-.4.8-.5 1.8-.3 2.7.3.8.7 1.6 1.3 2.2.6.7 1.4 1.3 2.2 1.9 1.5 1 3.1 1.8 4.8 2.4z"/><path class="st1" d="M52.3 32.6c.8.4 1.7.6 2.6.7 1 0 2-.3 2.9-.7 1-.5 2-1.1 2.8-1.9 1.6-1.4 3-3 4.1-4.8-.1-.1-.2-.2-.2-.3-2.3-.5-4.7-.9-7-1.2-.1 0-.3.1-.4.1-1.1 0-2.1.1-3.1.3a6 6 0 00-2.5 1c-.4.3-.8.8-1 1.3-.2.5-.3 1-.3 1.5 0 .8.2 1.7.6 2.4.3.7.8 1.3 1.5 1.6z"/><path d="M96.1 27.6c-.9-1.4-1.9-2.7-3.2-3.8-.5-.5-.9-1-1.4-1.5-.3-.4-.6-1-.7-1.5-.1-.5-.2-.9-.2-1.4 0-.6-.1-1.2-.1-1.9-.5-3.1-2.8-5.6-5.8-6.5-1.5-.3-3-.5-4.5-.5-.6 0-1.2-.1-1.7-.3-.5-.2-.9-.4-1.2-.7-.3-.3-.5-.7-.7-1.1-.3-.6-.6-1.1-.9-1.6-.6-.9-1.5-1.7-2.5-2.1-1-.5-2.1-.7-3.2-.7-.9 0-1.8.2-2.6.5-.5.2-.8.6-.8 1.1l-1.8 14c-.6-2.8-1.6-5.6-2.9-8.2L61 9.9c-.4-.5-.9-1-1.4-1.4-1-.6-2.1-.9-3.2-.9H56c-.9 0-1.8.1-2.6.5-1 .5-1.9 1.3-2.4 2.3-.8 1.5-1 3.3-.5 4.9.4 1.2 1 2.3 1.9 3.3.8.9 1.7 1.7 2.7 2.3l.8-1.2-.8 1.2c.4.2.7.5 1.1.7-1.1-.1-2.1-.1-3.3-.1-1.6 0-3.3.1-5 .2-4.8.5-16.4 1.7-26.8 10.6-4.4 3.8-8 8.5-10.6 13.7-.2.4-.5.7-.9 1l-4.2 2.9c-2 1.3-2.5 4-1.2 6 .3.6.8 1.1 1.5 1.4l2.7 1.4c.6.3 1 .9 1.1 1.5 1.5 7.5 5 14.4 10.3 20 5.9 6.2 13.5 10.4 21.9 12.2.4.1.7.3.9.5l.6-.6-.6.6 2.8 3c2 2.1 5.3 2.2 7.4.2l.2-.2 4.6-4.8c.2-.2.4-.3.6-.4 7.2-4.1 13.1-10.2 17-17.5 3.6-6.8 4.4-14 4.4-20.3 0-3.4-.2-6.6-.4-9.3-.1-2.2-.4-4.2-.6-5.7 3.6-2.7 7.9-4.3 12.4-4.5 1 0 2.1-.2 3-.5.6-.2 1.1-.5 1.5-.9.5-.5.8-1.1.9-1.8v-.5c.2-.9 0-1.5-.3-2.1zm-45.6-.4c.2-.5.6-.9 1-1.3.7-.5 1.6-.9 2.5-1 1-.2 2.1-.3 3.1-.3.1 0 .3 0 .4-.1 2.4.2 4.7.6 7 1.2.1.1.2.2.2.3-1.1 1.8-2.5 3.4-4.1 4.8-.9.7-1.8 1.4-2.8 1.8-.9.4-1.9.7-2.9.7-.9 0-1.8-.2-2.6-.7-.6-.4-1.2-.9-1.5-1.6-.4-.7-.6-1.6-.6-2.4 0-.5.1-1 .3-1.4zm3.8-10.5c-.6-.6-1-1.4-1.3-2.2-.3-.9-.2-1.9.3-2.7.2-.4.6-.8 1-1 .5-.2 1-.3 1.4-.2h.3c.6 0 1.2.1 1.8.4.3.2.5.4.7.7.2.4.5.7.7 1.1 1.3 2.5 2.3 5.2 2.8 8 0 .1.1.3.1.4-.2-.1-.5-.1-.8-.2-1.7-.6-3.3-1.4-4.8-2.4-.8-.6-1.6-1.2-2.2-1.9zm18.4 55.1c-3.7 6.8-9.2 12.5-15.9 16.3l-1.2.9-4.6 4.9c-.9.9-2.4 1-3.4.1l-.1-.1c-.5-.5-.9-1-1.4-1.4h.1c.8 0 1.4-.7 1.4-1.5s-.7-1.4-1.5-1.4h-.5c-.9 0-1.8-.1-2.7-.2-.3 0-.6 0-.9.1-7.7-1.7-14.8-5.6-20.3-11.3-4.9-5.2-8.2-11.6-9.6-18.6a5.2 5.2 0 00-2.6-3.5L7 54.8a.9.9 0 01-.6-.6c-.1-.2-.2-.5-.2-.8 0-.5.2-1 .7-1.2l4.2-2.9c.8-.5 1.4-1.2 1.8-2.1 2.4-4.9 5.8-9.3 9.9-12.8 9.6-8.3 20.5-9.5 25.2-9.9.3 0 .6 0 .9-.1-.4.5-.7 1-1 1.5-.4.8-.6 1.7-.5 2.7 0 1.3.3 2.6.9 3.7a6.1 6.1 0 002.7 2.8c1.2.6 2.5 1 3.9 1s2.8-.3 4.1-.9c1.9-.9 3.6-2.2 5-3.7 1-1 1.9-2.1 2.7-3.2 1.3 1.5 2.7 3 4.2 4.6 1.7 1.7 3.3 3.2 4.9 4.6.2 1.5.5 3.7.7 6.2.2 2.7.4 5.9.4 9.2-.1 6-.9 12.7-4.2 18.9zm21.1-42.2c0 .1 0 .2-.1.2-.3.2-.6.4-1 .4-.6.1-1.1.2-1.7.2-4.9.2-9.6 1.9-13.5 4.8-1.5-1.3-3-2.7-4.6-4.3-2.1-2.1-4.1-4.3-5.9-6.7.8-5.8 1.5-11.6 2.3-17.4.3-.1.5-.1.8-.1.7 0 1.3.2 1.9.5.6.3 1.1.7 1.5 1.2.3.4.5.9.8 1.3.3.6.7 1.2 1.2 1.7.1.1.2.1.2.2-1.2 1.5-2.2 3-3.2 4.6-.4.7-.2 1.5.5 1.9.7.4 1.5.2 1.9-.5.9-1.5 1.9-3 3.1-4.4.1-.1.1-.2.2-.3 1 .2 2 .4 3 .4s2 .1 2.9.3c1.9.6 3.4 2.2 3.7 4.2.1.5.1 1 .1 1.6 0 .3 0 .7.1 1.1-.1 0-.2.1-.2.1-2.3 1.6-4.7 3.1-7.1 4.6-.7.4-.9 1.3-.5 1.9s1.3.9 1.9.5c2.3-1.4 4.5-2.9 6.7-4.4.1.2.3.4.4.6.7 1 1.6 1.9 2.5 2.7.7.7 1.4 1.5 1.9 2.3.1.3.1.5.2.8zM50.3 15.3zM29.7 64.5z"/><path d="M54.7 41c-1 .8-2 1.7-2.9 2.6-1.5-1-3.3-1.5-5.1-1.5h-.9a9.8 9.8 0 00-7.6 5.1c-.5.9-.7 1.9-.8 2.9v.1c0 1.4.5 2.8 1.3 3.9.7 1 1.6 2 2.5 2.9.9.9 1.9 1.7 3 2.5.7.5 1.3 1.1 1.7 1.8.7 1 1.1 2.1 1.2 3.3 0 .3 0 .5-.1.8-.2.8-.6 1.6-1.2 2.1-.5.5-1 .8-1.5 1.2-1.2.7-2.6 1.1-4 1.1-.4 0-.7 0-1.1-.1a8 8 0 01-4.2-2.1c-1.1-1.1-2-2.5-2.5-4-.3-.8-.5-1.6-.5-2.5 0-1.2.2-2.5.7-3.6.3-.7-.1-1.6-.8-1.8-.7-.3-1.5.1-1.8.8-.6 1.5-.9 3.1-.9 4.7 0 1.1.2 2.3.5 3.4.4 1.3 1 2.5 1.8 3.5-.8.9-1.5 1.7-2.2 2.7-.5.6-.4 1.5.3 2 .6.5 1.5.4 2-.3.6-.8 1.2-1.5 1.9-2.3 1.5 1.3 3.3 2.1 5.3 2.4.5.1 1 .1 1.5.1 1.9 0 3.9-.5 5.5-1.5.7-.4 1.4-1 2-1.6 1-1 1.7-2.2 2-3.5.1-.5.1-.9.1-1.4-.1-1.7-.6-3.4-1.6-4.8-.6-1-1.5-1.9-2.5-2.6-.9-.6-1.8-1.3-2.6-2.1s-1.5-1.6-2.2-2.5c-.5-.7-.8-1.5-.9-2.3v-.1c0-.6.2-1.1.4-1.7.5-1 1.2-1.8 2.1-2.4 1-.7 2.1-1.1 3.2-1.2h.6c2.2 0 4.3 1.1 5.5 2.9.8 1.1 1.2 2.4 1.1 3.7 0 1-.2 1.9-.5 2.8-.3.7 0 1.6.7 1.9.7.3 1.6 0 1.9-.7.5-1.3.8-2.6.8-4 0-1.9-.6-3.8-1.6-5.4-.2-.3-.4-.5-.6-.7.8-.8 1.6-1.5 2.5-2.2.6-.5.8-1.4.3-2-.3-.6-1.2-.8-1.8-.3z"/></g></svg>